<svg id="svg" viewBox="0 0 416 420" xmlns="http://www.w3.org/2000/svg" xmlns:xlink="http://www.w3.org/1999/xlink" version="1.1" width="416" height="420" preserveAspectRatio="xMidYMid meet" buffered-rendering="static" style="background: rgb(255, 255, 255);"><g><path d="M 217 -0.04802877092017477 C 216.725 -0.05216850246963434 216.15 0.2944444444444443 215.72222222222223 0.7222222222222222 C 215.29444444444445 1.1500000000000001 214.95694444444445 2.7375 214.97222222222223 4.25 C 214.9933595211373 6.342592592592591 214.5218855218855 7 213 7 C 211.9 7 208.8625 8.339474766455115 206.25 9.976610592122478 C 203.4115935782094 11.75531177524887 198.88413510350293 13.412691240590284 195 14.094929752697386 C 191.425 14.722869465346221 187.375 15.000465061404219 186 14.711808855048488 C 184.625 14.42315264869276 182.4875 13.919909026434052 181.25 13.593489694473583 C 179.4688367685088 13.123666573555678 179 13.416743794230051 179 15 C 179 16.1 177.3125 18.8543403600629 175.25 21.12075635569533 C 173.1875 23.387172351327763 169.7 26.30387554425322 167.5 27.60231900664079 C 165.3 28.900762469028365 160.63174223507505 30.758922108965464 157.12609385572233 31.731562650945463 L 150.75218771144466 33.5 L 149.62609385572233 38.0522644302194 C 149.00674223507505 40.55600986684007 147.15 44.57044041836004 145.5 46.97322121137489 C 143.85 49.37600200438973 140.25 53.11704709456758 137.5 55.28665474510344 C 134.75 57.4562623956393 130.8125 60.07933184411933 128.75 61.11569796394795 L 125 63 L 125.62750824595709 69.25 C 126.08301578478046 73.78686805868806 125.77672682240146 77.14460666365947 124.51007766824995 81.5 C 123.07580888051724 86.43175612215741 121.71780238269432 88.52373371626582 116.88256942229286 93.25 L 111 99 L 114.17755897777405 102.75 C 115.92521641554978 104.8125 118.49227359930487 108.975 119.88213049722978 112 C 121.34520855602044 115.18436461656556 122.59154463184038 120.02614769101939 122.84237564896992 123.5 C 123.12751652783734 127.44902238078012 122.7118029855446 131.20914801601657 121.62623304927386 134.5 C 120.7190766839089 137.25 119.9820648256275 139.8375 119.98842891975968 140.25 C 119.99479301389187 140.6625 121.4625 141.27919713921736 123.25 141.62043808714967 C 125.0375 141.96167903508197 127.625 142.813307193839 129 143.5129451066097 C 130.375 144.2125830193804 132.7868641853225 146.07088588016305 134.35969818960552 147.64250701946003 C 135.9325321938886 149.214128158757 138.12479634844757 152.3 139.23139631084774 154.5 L 141.24339624248438 158.5 L 139.98675852228953 163.5 C 139.12253904291364 166.93861824886923 138.9891801216917 170.52979627647 139.55970434055158 175 C 140.01597528670285 178.575 140.41419810623157 183.84354309452146 140.44464393950423 186.70787354338103 L 140.5 191.91574708676205 L 136 196.4946090277402 C 133.525 199.0129830952782 127.2717113196334 203.41944000075674 122.10380293251866 206.28673548435918 C 116.38218816834842 209.461242256407 111.40318252305177 213.06428490246472 109.37209239193463 215.5 C 107.53755998172815 217.7 105.75109344529555 221.075 105.40216675541774 223 C 104.93884285674737 225.5561200412981 105.36335546551359 227.71355994690242 106.97630138661083 231 C 108.30770254048 233.71278163860532 108.94956124511387 236.39360918069735 108.59242409060906 237.75 L 108 240 L 101 240 C 94.85963753055461 240 93.81256504231739 240.27631206339254 92.4737233343782 242.25 C 91.6342711682862 243.4875 90.62177116828622 247.2935628914843 90.2237233343782 250.70791753663175 C 89.75064783191769 254.76584073514056 88.8073379839741 257.6584374768664 87.5 259.06003350315154 C 86.09495990622544 260.5663758846521 84.7563001172182 261.04255680856824 83 260.660749514209 C 81.4841074735971 260.3312051394343 79.62731033678313 258.61802519998895 78.28304279097937 256.30863354768917 C 77.06371632601801 254.21388509646013 76.03319939222318 250.7 75.99300516032419 248.5 L 75.91992473868964 244.5 L 74.20996236934482 247.5 C 72.8583437862931 249.87131285567926 72.5 253.01474857728294 72.5 262.5 C 72.5 273.01851851851853 72.77777777777777 275.0246913580247 74.75 278.75 C 75.9875 281.0875 77.02083170713644 283.5625 77.04629268252542 284.25 C 77.0717536579144 284.9375 75.4967536579144 286.7375 73.54629268252542 288.25 C 70.95768223082985 290.25735793107 68.85228043892633 291.00204001272334 65.75 291.00755415727696 C 63.412499999999994 291.0117089437793 58.575 291.47800911406284 55 292.0437767579071 C 51.425 292.60954440175135 46.25 294.1664361226669 43.5 295.50353613771944 C 40.60261592843059 296.91229696888615 33.70472913865542 302.4689967358164 27.096893049973673 308.7173135370893 C 20.825184227459193 314.6477910916902 13.800365791296137 321.975 11.486185414055768 325 C 9.1720050368154 328.025 6.037657114402751 332.975 4.520967808694323 336 C 3.004278502985895 339.025 1.5029484708854555 343.975 1.1846788484711226 347 C 0.7498926479745724 351.1324341497784 0.9036380200294403 352.3135137476971 1.8030034038588951 351.75 C 2.461351531736503 351.3375 3 349.65 3 348 C 3 346.35 3.8108644644934015 342.8625 4.801921032207559 340.25 C 5.792977599921717 337.6375 8.428263224021013 332.8 10.658111307983773 329.5 C 12.887959391946534 326.2 20.064594927453133 318.38699770766505 26.606190275776214 312.1377726837001 C 33.1477856240993 305.8885476597352 40.3 299.7111980094378 42.5 298.41032901637254 C 44.7 297.1094600233073 49.65 295.3677759463407 53.5 294.53991995644685 C 57.35 293.71206396655293 63.087500000000006 293.0269136168503 66.25 293.0173636237744 L 72 293 L 76.75 288.8990239575719 C 79.3625 286.6434871342364 86 282.6265360326163 91.5 279.97246595397166 C 97 277.31839587532704 103.83540703151353 274.3263350944197 106.68979340336338 273.32344199639977 C 109.54417977521325 272.3205488983799 112.09726372341048 271.725 112.36331328824612 272 C 112.62936285308176 272.275 113.75347833291217 279.025 114.86134768786926 287 C 115.96921704282636 294.975 118.05062682759254 306.45 119.48670276512746 312.5 C 120.92277870266238 318.55 123.81492436828661 327.775 125.91369313318133 333 C 128.01246189807603 338.225 130.3055196475891 344.3 131.00937702098813 346.5 C 131.71323439438714 348.7 133.51248565642427 352.3 135.0077131588484 354.5 C 136.50294066127248 356.7 138.6325409926093 360.3 139.7401583395969 362.5 C 140.84777568658447 364.7 142.37185624757916 367.00382438369746 143.12700403069624 367.61960974154994 C 143.88215181381332 368.2353950994024 146.3 369.01261990467395 148.5 369.34677597548676 L 152.5 369.95433246787366 L 148.25 367.9771662339368 C 144.81401596098615 366.37869291104647 143.28175062265927 364.70887874357356 140.25 359.2590199666789 C 138.1875 355.5514809483524 135.4752745381654 349.81398094835237 134.2228323070342 346.5090199666789 C 132.97039007590303 343.20405898500553 130.38289007590302 335.8875 128.4728323070342 330.25 C 126.5627745381654 324.6125 124.98078794797647 318.7625 124.95730655105882 317.25 C 124.92809142533252 315.3681750891582 126.19089155501722 313.15827486221 128.95730655105882 310.25 C 131.64254703303456 307.42706222533747 134.42706222533747 305.62912901707136 137.25 304.89549197683095 L 141.5 303.79098395366196 L 146.75 304.89549197683095 C 149.6375 305.50297138957393 152.3375 306.5556815120849 152.75 307.2348478046331 C 153.1625 307.9140140971812 155.35016517590873 313.87651409718126 157.6114781686861 320.4848478046331 C 159.87279116146345 327.09318151208487 162.86152383932017 335.425 164.25310634170103 339 C 165.64468884408188 342.575 168.59981008155785 349.325 170.82004242498093 354 C 173.040274768404 358.675 176.4190906529595 364.3 178.3285221684376 366.5 C 180.23795368391566 368.7 182.070167270531 370.1625 182.4001079164716 369.75 C 182.7300485624122 369.3375 181.3095655905713 366.8625 179.24347909015847 364.25 C 176.75838770091525 361.1076817799736 172.8890133814522 353.0692728801057 167.81116191993365 340.5 C 163.50516950830962 329.8413200343633 157.63281711283986 312.7196631217228 154.43501820955242 301.5 L 148.7346707595545 281.5 L 149.41898787625345 273.5 C 149.79536229043788 269.1 151.22843240570538 262.35 152.60358813240344 258.5 C 153.97874385910154 254.65 155.41800023568723 250.47050924668966 155.80193563592724 249.21224277042148 C 156.18587103616727 247.95397629415328 156.95 247.13826956623248 157.5 247.39956115281967 C 158.05 247.6608527394069 158.95 247.44054378982145 159.5 246.9099857092965 C 160.1572038140896 246.27601335635637 161.35085235305098 248.09718035182664 162.98209399060624 252.22266732689826 C 164.34724568543965 255.67520029710423 167.6618159686099 262.1 170.34780573098453 266.5 C 173.0337954933592 270.9 176.3603850198457 275.85 177.74022690095455 277.5 C 179.1200687820634 279.15 181.54299849889316 281.2875 183.12451516057624 282.25 L 186 284 L 186 282 C 186 280.9 186.3375 279.9799635920185 186.75 279.95547464893014 C 187.1625 279.9309857058417 188.175 280.67499569849554 189 281.60883018816094 C 189.825 282.54266467782634 192.75 284.96735455071615 195.5 286.99702990569386 C 198.25 289.0267052606716 203.875 292.6032605650689 208 294.94493058213243 C 212.125 297.2866005991959 217.075 300.44868671714227 219 301.97178862201326 C 220.925 303.4948905268842 223.4 306.37779093246803 224.5 308.378233967755 C 225.6 310.378677003042 226.95 312.02150159109254 227.5 312.028955274534 C 228.05 312.0364089579754 229.85 310.62749489266685 231.5 308.8980351294038 C 233.15 307.1685753661408 239.225 302.18394135470095 245 297.82107065953755 C 253.8981922781659 291.0987048880502 255.5895963791172 290.16404528970844 256.0873126767384 291.69428924325655 C 256.57852687186323 293.2045422841541 257.69350019983546 292.5182556710952 262.9015511407347 287.5 C 266.3263603237264 284.2 270.33706961919415 279.73520139981156 271.8142384639962 277.5782253329146 L 274.5 273.65645066582914 L 275.1871755372174 282.0782253329146 C 275.56512208268697 286.7102013998116 276.57762208268696 293.3125 277.4371755372174 296.75 C 278.29672899174784 300.1875 279.45 303 280 303 C 280.55 303 281 302.55 281 302 C 281 301.45 280.2922100145823 298.1875 279.42713336573837 294.75 C 278.56205671689446 291.3125 278.04388031033864 287.825 278.2756302400587 287 C 278.50738016977874 286.175 280.954287832374 290.225 283.71320282360375 296 C 286.47211781483344 301.775 289.0152942213893 307.9625 289.3647059492834 309.75 C 289.7141176771775 311.5375 290.45 313.225 291 313.5 C 291.55 313.775 291.992500000001 316.5875 291.9833333333355 319.75 C 291.9741666666701 322.9125 292.3900734945103 325.95 292.90757072853603 326.5 C 293.4250679625617 327.05 295.0648194981435 331.775 296.5514630298288 337 C 298.7513724472638 344.7318647416889 299.1842422224225 348.02001143478606 298.87722563462836 354.66685746330324 L 298.5 362.8337149266065 L 303.5 363.22761348209383 C 306.25 363.4442576876118 308.6172890281988 363.59417182912534 308.7606422848862 363.5607560187906 C 308.90399554157364 363.52734020845577 308.7914955415736 362.7125 308.5106422848862 361.75 C 308.0996284598966 360.34143236856687 307.2683592102139 360.1123371429876 304.25 360.5757802081081 L 300.5 361.1515604162162 L 301.2920720898398 354.3257802081081 C 301.935928354541 348.77726839354256 301.70783803120963 346.1901308740974 300.07314706004394 340.5 C 298.96709864424434 336.65 297.123301662864 329.675 295.9758204347543 325 C 294.82833920664467 320.325 293.82887816833073 315.15 293.7547959051679 313.5 C 293.68071364200506 311.85 294.5420044071816 309.15 295.668775383338 307.5 C 296.7955463594944 305.85 299.13102366121643 303.2625 300.8587249427203 301.75 C 302.5864262242241 300.2375 305.0125 298.72621638655625 306.25 298.39159197012503 L 308.5 297.78318394025007 L 311.25 298.39159197012503 C 312.7625 298.72621638655625 314.9 299.9 316 301 C 317.1 302.1 319.2939665252598 307.1625 320.87548116724406 312.25 C 322.4569958092283 317.3375 324.05579382746214 323.975 324.4283656522082 327 C 324.80093747695423 330.025 325.99156677904034 335.425 327.07420854573286 339 C 328.15685031242543 342.575 329.0330522941916 347.6375 329.02132406076873 350.25 L 329 355 L 325.5 355.5 C 322.8333333333333 355.8809523809524 322 356.4761904761905 322 358 L 322 360 L 324.25 358.49226797178994 C 325.4875 357.6630153562744 327.2875 356.9880153562744 328.25 356.99226797178994 C 329.2125 356.9965205873055 330.2990940445059 356.4375 330.66465343223535 355.75 C 331.03021281996485 355.0625 331.295059136076 352.25 331.25320080137135 349.5 C 331.21134246666674 346.75 330.0651955227476 340.225 328.7062075926623 335 C 327.34721966257695 329.775 325.9413767748093 323.475 325.582112286512 321 C 325.2228477982146 318.525 322.9051731656056 310.425 320.4317242140475 303 C 317.9582752624894 295.575 316.0617718341458 289.3979538144748 316.2172721510618 289.2732306988329 C 316.3727724679778 289.14850758319096 319.65 290.37383294373006 323.5 291.9961759444752 C 327.35 293.61851894522044 331.4 294.9487777829577 332.5 294.95230669500233 C 333.6 294.955835607047 336.525 295.6669394374517 339 296.53253742923494 C 341.475 297.39813542101825 346.875 299.0040389132203 351 300.1012118563507 C 355.125 301.19838479948106 362.1 303.7427602238423 366.5 305.7553794660423 C 370.9 307.76799870824226 376.975 310.9511348843304 380 312.8290154129047 C 383.025 314.706895941479 388.6077127112848 318.776091326174 392.40602824729956 321.8716718233381 C 396.2219843927903 324.9816292004991 401.4976483519075 330.63211935110746 404.19665420181906 334.5 C 406.88318294079005 338.35 409.97843551905447 343.975 411.07499326462903 347 C 412.17155101020353 350.025 413.27826933066973 353.0625 413.5343673101095 353.75 C 413.7904652895493 354.4375 414.45 354.775 415 354.5 C 415.6150380913283 354.19248095433585 415.2110989860823 351.7864690251376 413.9507037030241 348.25 C 412.82359073968735 345.0875 410.47207689041943 340.025 408.72511737131765 337 C 406.9781578522158 333.975 402.61284118585496 328.52256309070054 399.0244136682935 324.8834735348901 C 395.4359861507321 321.24438397907966 389.125 316.0927863833284 385 313.4354788776651 C 380.875 310.77817137200185 373 306.502981032439 367.5 303.93505590085886 C 362 301.3671307692787 353.675 298.13417699262874 349 296.75071417497014 C 344.325 295.36725135731155 338.925 293.82759460877503 337 293.32925473377793 L 333.5 292.4231822337831 L 333.88477970929 286.46159111689155 C 334.0964085493995 283.1827160026012 333.9304653778837 279.825 333.51601710592155 279 C 332.9104937679722 277.7946463102786 332.54026484328534 277.97179631315163 331.63123739663155 279.90184399070984 C 331.0090568284842 281.2228581856002 329.75173482160426 282.7978581856002 328.83718849245395 283.40184399070984 C 327.57612315970704 284.2346782999378 326.78014420985926 284.13759015410704 325.542663141384 283 C 324.64522052744593 282.175 323.9216983580536 280.6 323.93483609829 279.5 C 323.9479738385265 278.4 324.6516841813757 275.475 325.49863686017727 273 C 326.666618529145 269.58687586325885 326.7923673011834 267.7150340987575 326.01927541081733 265.25 C 325.4032135083272 263.2856622343245 324.01102905051965 261.6044116202078 322.5 261 C 320.8329381408258 260.3331752563303 318.91718041692644 260.33347821329613 316.75 261.0009093021167 C 314.9625 261.5514094182809 312.7125 262.0014094182809 311.75 262.0009093021167 C 310.7875 262.00040918595255 309.76145849100317 261.2125 309.4699077577849 260.25 C 309.1783570245666 259.2875 309.8888737419993 253.775 311.0488337965244 248 C 312.27466081978577 241.89707341065866 312.91541585922374 235.92961663905047 312.5789260387395 233.75 C 312.2605167174328 231.6875 311.3585634461033 228.7625 310.57458543578514 227.25 C 309.79060742546693 225.7375 306.1505427782662 221.35 302.4855528864502 217.5 C 298.8205629946342 213.65 295.1869995485309 209.2625 294.4109674506651 207.75 C 293.6349353527993 206.2375 292.6891008691864 201.2875 292.3091130426364 196.75 L 291.6182260852728 188.5 L 294.99650734035 181 C 296.92109419983314 176.7272943380808 298.4017281992299 171.77877635302357 298.4373942977136 169.5 C 298.49106723846734 166.0707314961046 298.17896353344116 165.46432928149346 296.25 165.25 C 295.0125 165.1125 293.99980327993154 164.6625 293.99956284429226 164.25 C 293.999322408653 163.8375 294.8949244966239 160.35 295.98978970644987 156.5 C 297.46460851911417 151.31392560673265 297.9200131580262 147.03824381943426 297.7472115436807 140 C 297.54337986062257 131.69789536444728 297.8104809129364 129.93257587999867 299.86547668794253 126 C 301.1588057166355 123.525 304.6391521331884 119.25 307.59957983583786 116.5 L 312.98217565883675 111.5 L 309.24108782941835 104.10442042147272 L 305.5 96.70884084294546 L 305.5 81.2137352093286 L 305.5 65.71862957571173 L 302 63.53168285845203 C 300.075 62.3288621639592 296.7 59.17111220690089 294.5 56.51446073165579 C 292.3 53.85780925641068 288.66260493609235 48.042743624642405 286.416899857983 43.59209266105962 C 282.8439381534276 36.51101794281924 281.9693651725977 35.46280222517295 279.416899857983 35.20227250384265 C 277.8126049360924 35.03852238095611 274.25 34.272830051331596 271.5 33.500733993565945 C 268.4225574821565 32.63670445319235 265.26664593666493 30.828626616112064 263.2924130363279 28.798461489723287 C 261.5282402063082 26.98430767037548 258.7730015363669 22.35 257.1696604364583 18.5 C 255.23853548174486 13.862913683139315 253.78959241071274 11.636492292176671 252.8772474001304 11.90435080301677 C 252.11976133005868 12.126743744675995 248.575 12.49616247368323 245 12.725281311921737 C 239.52538396079396 13.076144994916083 237.71124310708157 12.744196385970143 233.5 10.621029596810162 C 230.75 9.234572315260287 226.025 6.2685406393389735 223 4.029848094762798 C 219.975 1.7911555501866232 217.275 -0.0438890393707152 217 -0.04802877092017477 Z " class="odd" fill="#000000"></path><path d="M 213.5 4 C 213.225 4 212.775 4.45 212.5 5 C 212.225 5.55 212.45 6 213 6 C 213.55 6 214 5.55 214 5 C 214 4.45 213.775 4 213.5 4 Z " class="odd" fill="#000000"></path><path d="M 220 24.127659898236843 C 224.125 24.07735060821159 230.2 24.74858070241849 233.5 25.61928232980774 C 236.8 26.489983957196987 242.2 28.564220632474907 245.5 30.22869716375867 C 248.8 31.893173695042435 253.9614332474526 34.88513905054009 256.96985166100575 36.877509064864576 C 259.9782700745589 38.86987907918906 265.1048026022735 42.975 268.3621461670381 46 C 271.6194897318027 49.025 276.33554897996044 54.2 278.8422778296108 57.5 L 283.39996664715693 63.5 L 274.94998332357846 54.96349312829624 C 270.3024924956103 50.268414348859174 263.125 44.06524753764967 259 41.17867799227513 C 254.875 38.29210844690057 248.35 34.629289432587576 244.5 33.03908018269069 C 240.65 31.4488709327938 234.35 29.604624672213937 230.5 28.940755159179883 C 226.3401293872486 28.223453528537817 220.6598706127514 28.004211737945592 216.5 28.400395082263696 C 212.65 28.767066552993846 205.9 30.29874630521561 201.5 31.80412786497872 C 197.1 33.30950942474183 189.9 36.76973602660818 185.5 39.4935203135706 C 181.1 42.21730460053301 173.9 47.914711665020214 169.5 52.15442490131993 C 164.6594533264738 56.81863622010984 159.62192294197774 62.95076875248539 156.74455185386557 67.68149721093243 C 154.1290553734916 71.98167374491959 150.55948149559077 79.55 148.81216545853033 84.5 C 146.36342304122735 91.43708219266495 145.53413919853057 95.677524352187 145.19420522873685 103 C 144.89070154305895 109.53773539827824 145.283367907232 115.15044727522472 146.45348856806976 121 C 147.3886564940289 125.675 149.0401130580152 131.975 150.1233920435949 135 C 151.20667102917457 138.025 152.2970674043756 141.2875 152.54649509959717 142.25 C 152.79592279481872 143.2125 152.6625 144.0108825000469 152.25 144.02418333343758 C 151.8375 144.03748416682825 150.05524437924652 139.87498416682826 148.28943195388112 134.77418333343758 C 146.52361952851572 129.6733825000469 144.565138890415 122.8 143.93725275810175 119.5 C 143.30936662578847 116.2 142.9892978435992 108.775 143.2259887976811 103 C 143.6121394533131 93.57834700559515 144.1168066064892 91.26760342217696 148.13999614490285 80.5 C 150.60600923179285 73.9 154.84583363473564 64.74368533357455 157.56182815144234 60.15263407461009 C 161.0272450150828 54.29477745642192 164.43855290895917 50.14468455690624 169 46.23730387021787 C 172.575 43.174923516766604 178.65 38.62568147108033 182.5 36.12787710202615 C 186.35 33.63007273297197 192.875 30.282236034922654 197 28.68823999524989 C 201.125 27.094243955577127 206.3 25.4366052179843 208.5 25.004598356154723 C 210.7 24.57259149432515 215.875 24.1779691882621 220 24.127659898236843 Z " class="even" fill="#ffffff"></path><path d="M 223 31.35165166252762 C 231.7235964047208 31.635551723808906 234.76885971091372 32.18939950258243 241 34.625345598171826 C 245.125 36.237936099769996 251.65 39.63713593773743 255.5 42.179123015877245 C 259.35 44.72111009401706 265.90538887837084 50.10821122013824 270.06753084082413 54.15045885170208 C 274.2296728032774 58.19270648326594 278.7179315651196 63.075 280.0414392004735 65 C 281.64633464816694 67.33426967422359 280.28449805908207 66.33507225212952 275.9526478596267 62 C 272.38030498680706 58.425 266.7670462249649 53.833959309515194 263.47873949997734 51.79768735447821 C 260.1904327749898 49.76141539944122 253.675 46.63686982570014 249 44.85425274616469 L 240.5 41.61313078337297 L 229.5 41.561482626600736 C 222.0209335194383 41.52636626313729 216.41944837487736 42.070043846038445 212 43.26002461238262 C 208.425 44.22262919078739 201.675 46.87106036972806 197 49.145427232250796 C 190.05544065916013 52.52392469527301 186.94455934083987 54.865615158443816 180 61.94203816030722 C 174.2407847924429 67.81060965162806 169.9748817865749 73.32754508051917 166.77014859033906 79.0517183055248 C 164.16873031502556 83.69827323748616 161.08788678838084 90.2 159.92382964223975 93.5 C 158.75977249609866 96.8 157.17570563044606 102.7625 156.4036810519007 106.75 C 155.6261152568677 110.76612033328777 155 120.02170696560206 155 127.5 C 155 136.16666666666666 154.64197530864197 140.820987654321 154 140.5 C 153.45 140.225 151.81140987773227 136.2875 150.35868861718285 131.75 C 148.30830674432877 125.34573787434171 147.61553389669643 120.81529036459389 147.26216225099705 111.5 C 146.92674615782087 102.65803902514625 147.2271049817192 97.72360304835523 148.4034736338142 92.75 C 149.2815631352164 89.0375 151.38374932817817 82.9625 153.07499850706262 79.25 C 154.76624768594704 75.5375 158.25374768594705 69.39973545293151 160.82499850706262 65.61052322873667 C 163.39624932817816 61.82131100454185 168.2087933423965 56.19631100454185 171.5195407608811 53.110523228736675 C 174.83028817936574 50.0247354529315 180.23028817936571 45.72438591427242 183.5195407608811 43.55419092060538 C 186.8087933423965 41.38399592693834 192.3125 38.34649592693834 195.75 36.80419092060538 C 199.1875 35.26188591427242 204.3625 33.32723660283893 207.25 32.50497022853095 C 210.86775077129752 31.47475211256049 215.76449845740493 31.116180047835314 223 31.35165166252762 Z " class="even" fill="#ffffff"></path><path d="M 253 55.02737917054077 C 253.275 55.02065339876335 254.53920302020182 58.724241633300906 255.8093400448929 63.25757524729091 C 257.0794770695841 67.79090886128091 258.316977069584 71.6125 258.5593400448929 71.75 C 258.80170302020184 71.8875 260.35 71.325 262 70.5 C 263.65 69.675 266.0125 68.9925 267.25 68.98333333333333 C 268.4875 68.97416666666666 270.07 69.53666666666666 270.76666666666665 70.23333333333333 C 271.4633333333333 70.93 272.0458697413148 72.4 272.0611920177365 73.5 C 272.0765142941583 74.6 271.39401429415835 76.0625 270.54452535106986 76.75 C 269.2529254013104 77.79530491265876 269.20469508734124 78.40976284179916 270.25 80.50227574536316 L 271.5 83.00455149072631 L 273.5 81.02328089288628 C 274.6 79.93358206407427 276.7375 79.03255797866085 278.25 79.02100514752313 L 281 79 L 280.5 83.5 C 280.225 85.975 280.3375 87.98568848265829 280.75 87.96819662812955 C 281.1625 87.9507047736008 282.4 87.26806231724825 283.5 86.45121339179056 C 284.6 85.63436446633285 286.4 84.98056673220724 287.5 84.99832953817807 C 288.6 85.01609234414889 290.175 85.49356206255266 291 86.05937335685309 C 292.2825578501524 86.93899240801663 292.1672881117751 87.33541658766313 290.2048247881696 88.79406058233603 C 288.94247842166294 89.73232726205121 287.92997842166295 91.5125 287.9548247881696 92.75 C 287.9944595201433 94.72405044332099 288.3985938040919 94.93532035695407 291.25 94.47262391501997 L 294.5 93.94524783003995 L 295.25 94.47262391501997 C 295.6625 94.76268076175899 295.4730142559566 96.2375 294.8289205687925 97.75 C 293.88073701993477 99.97658232214894 293.9957482234954 101.64200220622048 295.43318141663076 106.5 L 297.2085216956765 112.5 L 295.51029793773347 117 C 294.5762748708648 119.475 293.6293574893376 122.9625 293.4060370898952 124.75 C 293.1827166904528 126.5375 292.6625 127.99293594582888 292.25 127.98430210184196 C 291.8375 127.97566825785503 290.0293440410755 126.51316825785503 288.2318756468345 124.73430210184196 C 286.4344072525935 122.95543594582888 284.97190725259344 122.0625 284.9818756468345 122.75 C 284.9918440410755 123.4375 286.575 130.75 288.5 139 C 290.425 147.25 292 154.9 292 156 C 292 157.48213059504667 291.5468642706658 157.83412829081675 290.25 157.3594071880025 C 289.2875 157.0070811414039 286.25 156.07668764902246 283.5 155.29186609382157 C 280.07455745182057 154.314280221853 275.508340841541 154.0124140552688 269 154.33329145992946 L 259.5 154.80166510822076 L 256.80452735453736 158.15083255411037 C 255.32201739953285 159.99287464934966 253.2195016201402 163.975 252.13227006699802 167 C 251.04503851385584 170.025 249.67301082479526 174.3 249.08331964686334 176.5 C 248.49362846893143 178.7 248.05184277597468 184.325 248.101573662515 189 C 248.1513045490553 193.675 248.7458678788026 199.75 249.42282550639788 202.5 L 250.65365755657115 207.5 L 250.17424208049056 194.5 C 249.75556581823832 183.14702605394484 249.96830358847018 180.61313981710663 251.8533843177308 174.5 C 253.04059106005724 170.65 254.571755074065 166.73842316974628 255.2559710155258 165.80760704388064 C 255.94018695698662 164.876790918015 260.1 163.1842737739787 264.5 162.0464578349111 C 269.0486114752485 160.8702117810103 275.6278208505561 159.98251161354813 279.75 159.98885079103047 C 283.7375 159.9949828559637 288.125 160.45 289.5 161 C 291.5608873435441 161.82435493741764 291.9002823398767 162.48302392210147 291.43227746537696 164.75 C 291.12003007133427 166.2625 290.28410474154606 168.4 289.57466562140314 169.5 C 288.60425007953546 171.00464932895062 287.0111336001104 171.56191883388118 283.1423881560262 171.75 C 280.31407467021177 171.8875 273.8375 172.9333940636067 268.75 174.07420903023709 C 263.6625 175.21502399686747 259.275 176.28595742404312 259 176.45406109062742 C 258.725 176.6221647572117 257.825 179.5121294709723 257 182.8762048989843 C 255.99706853681397 186.96582561569244 255.83137902454263 189.3390137181151 256.5 190.03775685809808 C 257.194885499722 190.7639477701799 259.86463737715457 190.76506057200973 265.25 190.0414040195041 C 269.5125 189.46863180877685 274.8 188.325 277 187.5 L 281 186 L 282.45167427505226 180.75 C 283.25009512633096 177.8625 284.67376903409325 174.825 285.61539407007956 174 L 287.3274395900547 172.5 L 286.0172101385554 175 C 285.0264029046841 176.89052236754696 284.91779814182394 179.4503284238497 285.5717271664279 185.5 C 286.04733773008235 189.9 286.4366366529887 197.55 286.43683588399756 202.5 C 286.43715451389915 210.41652876696511 286.0966488036485 212.1621213090769 283.6083792542156 217 C 282.0525288768267 220.025 278.9601611114097 224.975 276.73645088662226 228 L 272.6933413870088 233.5 L 270.0023145376548 227.5 C 268.2522969018525 223.59810440303326 265.5084411799869 219.839000680932 262.1556438441504 216.75 C 257.69627100778195 212.64148870382436 257.00225083755726 211.49356154961234 257.01666666666654 208.25 C 257.02583333333314 206.1875 256.46333333333314 203.92999999999995 255.76666666666654 203.2333333333332 C 255.06999999999994 202.53666666666646 254.1625 201.97416666666646 253.75 201.9833333333332 C 253.3375 201.99249999999995 253.45 202.9 254 204 C 254.55 205.1 255 207.35 255 209 C 255 211 254.5 212 253.5 212 C 252.675 212 250.7625 213.57498672944305 249.25 215.4999705098735 C 247.7375 217.4249542903039 245.825 218.98661743303933 245 218.97033304928553 C 244.175 218.95404866553173 240.9125 216.47906193608867 237.75 213.47036253941206 C 234.5875 210.46166314273543 231.55 208 231 208 C 230.45 208 229.56368390865543 208.7875 229.03040868590097 209.75 L 228.06081737180193 211.5 L 228.03040868590097 209.75 C 228.01368390865542 208.7875 228.45 206.875 229 205.5 C 229.79012345679013 203.52469135802468 230.52469135802468 203.10493827160494 232.5 203.5 C 233.875 203.775 235 203.55 235 203 C 235 202.45 234.2125 201.76352348296612 233.25 201.4744966288136 L 231.5 200.94899325762717 L 229.75 201.4744966288136 C 228.7875 201.76352348296612 227.55 203.35 227 205 C 226.19321937968726 207.4203418609382 225.17881763632911 208.19651106924547 221.75 209.01703602176718 C 219.4125 209.57640583373916 215.1375 211.15140583373915 212.25 212.51703602176718 C 209.3625 213.88266620979525 205.15362527642046 216.6875 202.89694505871213 218.75 C 200.6402648410038 220.8125 197.8277648410038 224.19770780298245 196.64694505871213 226.27268400662768 C 195.46612527642046 228.34766021027292 194.1625 230.03516021027292 193.75 230.02268400662768 C 193.3375 230.01020780298245 191.57014875784068 228.3125 189.8225527952015 226.25 C 188.0749568325623 224.1875 185.26737316833248 219.575 183.5834779858019 216 C 180.90102227454145 210.30500231413203 180.5204973344753 208.4163430386684 180.5109251906004 200.75 C 180.5045021092811 195.60574544194424 180.08791480663496 191.99076141840348 179.5 191.97758089408387 C 178.95 191.96525038583 177.70990137984558 193.42775038583 176.74422528854572 195.22758089408387 L 174.98845057709144 198.5 L 175.61920713939895 194 C 175.96612324866805 191.525 178.0154484626443 184.55 180.1732631704572 178.5 C 182.33107787827012 172.45 184.74256505547913 165.025 185.53212356425496 162 C 186.32168207303081 158.975 187.42495547920902 150.7625 187.983842244651 143.75 C 188.54272901009296 136.7375 188.775 130.55 188.5 130 C 188.225 129.45 183.8375 132.99914396221243 178.75 137.88698658269428 C 171.01595400207668 145.31751231388182 168.59862194471117 147.03992145723285 164 148.39672800899848 C 160.975 149.28924317298393 157.9375 150.01509921077152 157.25 150.0097414263042 C 156.3618537833956 150.00281997757108 156.49374688732576 150.7960783234703 157.70561601806568 152.75 C 158.6437048280018 154.2625 160.92824460515413 157.975 162.78237107840417 161 L 166.15351012067697 166.5 L 165.5307088359598 174.5 C 165.18816812936538 178.9 163.98629483849913 187.675 162.85987930070152 194 C 161.7334637629039 200.325 160.4041845638743 206.2875 159.9059255250802 207.25 C 159.40766648628608 208.2125 158.5072732474718 212.4875 157.90505166104847 216.75 C 157.30283007462515 221.0125 156.17783007462515 225.7375 155.40505166104847 227.25 C 154.6322732474718 228.7625 154.02003640798145 231.9125 154.04452535106986 234.25 C 154.07250450362415 236.92064482364265 153.51508502961568 238.9645162283404 152.54452535106986 239.75 C 151.52173764944462 240.5777524393795 149.7332573181385 240.75861965188693 147.25 240.28543001006818 C 145.1875 239.89241651560567 142.4875 238.76741651560567 141.25 237.78543001006818 C 140.0125 236.8034435045307 138.99652058730547 234.9875 138.99226797178994 233.75 C 138.98801535627442 232.5125 139.62886506877845 230.6 140.41637844402112 229.5 C 141.35705372275572 228.18606319697216 141.53647461751504 226.98545260227087 140.93942324674825 226 C 140.43958451300549 225.175 140.03014270812284 222.7 140.0295525692313 220.5 C 140.02896243033976 218.3 141.03457168180708 214.5058920443921 142.26423979471423 212.06864898753804 C 143.4939079076214 209.631405930684 146.075 206.3630745609394 148 204.80569038810563 L 151.5 201.97408280113515 L 151.20622133039157 196.2370414005676 C 151.04464306210693 193.08166863025542 150.46499821818918 186.675 149.918121677241 182 C 149.37124513629286 177.325 148.2106441137606 170.575 147.339008293836 167 C 145.9575913883372 161.33414124997108 145.93039833907713 159.7991978598001 147.12710794698657 155.0390377091922 C 147.88219857614396 152.0355084492479 149.10676184727544 149.1105084492479 149.8483596606121 148.5390377091922 C 150.58995747394874 147.9675669691365 152.38995747394873 146.32187664786676 153.8483596606121 144.8819481063706 C 155.30676184727545 143.44201956487444 157.625 142.00259177161854 159 141.68321967691307 C 160.375 141.3638475822076 164.2 139.34386986884485 167.5 137.19438031388475 C 170.8 135.04489075892465 177.55 129.37357775623389 182.5 124.59146253012753 L 191.5 115.8967075735705 L 189.33791905672882 113.69835378678525 C 188.14877453792968 112.48925920405335 186.55212984437222 109.925 185.78981973771226 108 L 184.40380136196686 104.5 L 179.95190068098344 108.62422456889269 C 177.49564678729013 110.89968922583792 173.48279180369724 116.44927134528743 171 121.00426525249432 C 168.525 125.54496411558424 164.8125 130.77656305958254 162.75 132.63004068360164 C 160.6875 134.48351830762073 158.4375 136.01558977420697 157.75 136.03464394268215 C 157.0625 136.05369811115733 158.525 134.3236884834174 161 132.19017810326008 C 163.51607292477738 130.02126185992864 166.99684504629528 125.48704328728164 168.89518664393088 121.90553416057793 C 170.76253929809286 118.38249037226007 173.91253929809287 113.49928195612384 175.89518664393088 111.05395990249743 C 177.8778339897689 108.60863784887101 180.85 105.82455048172427 182.5 104.86709908661581 L 185.5 103.12627836823675 L 186.25161430028163 96.31313918411837 C 186.7172261254622 92.09251942004796 186.62209672365535 89.02435299096575 186.00161430028163 88.25 C 185.45072643512674 87.5625 185.225 86.55 185.5 86 C 185.775 85.45 187.575 85 189.5 85 C 191.425 85 193.9 85.45 195 86 C 196.1 86.55 197.3375 86.7363220096211 197.75 86.41404891026914 C 198.1625 86.09177581091717 198.52103427898828 83.95427581091717 198.5467428421962 81.66404891026914 L 198.59348568439242 77.5 L 201.7967428421962 77.25 C 204.14234315585355 77.06693630903602 205.93710832650433 77.80323570843228 208.5 80 L 212 83 L 214.21839222072296 79.75 C 215.4385079421206 77.9625 216.45100794212058 75.0375 216.46839222072296 73.25 C 216.48703085016598 71.33352414894776 217.01289390344144 70 217.75 70 C 218.4375 70 220.6334993367797 70.7875 222.62999852617708 71.75 C 224.62649771557446 72.7125 226.98899771557447 74.71883338806 227.87999852617708 76.20851864013335 C 229.0296417304953 78.13063420528185 229.8629304333245 78.63873681193613 230.75 77.95851864013335 C 231.73205005199472 77.20546801582866 231.6248700727926 76.35941584366591 230.25 74.01164265424006 L 228.5 71.02328530848014 L 230.03632730469505 68.26164265424006 C 230.88130732227734 66.74273919440803 232.79380732227733 64.9375 234.28632730469505 64.25 C 236.33497207464896 63.306332045175175 237.5513976813153 63.27568981996421 239.25 64.12496319070436 C 240.4875 64.74369294559176 242.48337719043835 66.20619294559177 243.68528264541857 67.37496319070436 L 245.87056529083713 69.5 L 249.18528264541857 62.26980392324987 C 251.00837719043835 58.29319608103729 252.725 55.034104942318194 253 55.02737917054077 Z " class="even" fill="#ffffff"></path><path d="M 252.64968844059695 59.27262901198367 C 252.56735979826863 59.14757496857469 249.91864300146798 64.32257496857468 246.76365111437326 70.77262901198367 C 243.60865922727857 77.22268305539265 240.51438577668964 84.975 239.88748789084232 88 C 239.260590004995 91.025 238.99733090158185 96.2 239.30246766103534 99.5 C 239.72872246784223 104.10987022665583 239.60853522812857 105.03662340888528 238.78372225171492 103.5 C 238.19327551713522 102.4 237.73434225972233 98.8 237.76387056857516 95.5 C 237.7979475435012 91.69165398816494 238.783039126356 86.76043251479382 240.46071483735392 82 C 241.91445087632937 77.875 243.34089664198288 73.6 243.63059431658394 72.5 C 243.97131722065927 71.20625404570812 243.2467232984561 69.52890068715134 241.57865868065656 67.75 C 239.81504653114925 65.86920303856955 238.16205569701722 65.07901845805178 236.34889694242793 65.25 C 234.89079026076328 65.3875 232.84742280249102 66.625 231.80808036848956 68 C 230.7687379344881 69.375 230.16173431039553 71.2875 230.45918342606163 72.25 C 230.75663254172773 73.2125 231.45 74 232 74 C 232.55 74 233.225 73.1 233.5 72 C 233.775 70.9 234.45 70 235 70 C 235.56136441428637 70 235.7172533529169 70.98693006785564 235.35539510178347 72.25 C 235.00086240776437 73.4875 233.19842939422455 76.75 231.34998840502834 79.5 C 229.50154741583214 82.25 227.2661460577358 86.75 226.38242983148098 89.5 C 225.48801258044713 92.28330007673044 225.03492558557585 95.83001995396174 225.36044442399515 97.5 C 225.68206867613281 99.15 226.97004223842657 101.45173686132624 228.2226078957591 102.61497080294721 C 229.4751735530916 103.77820474456819 232.6375 105.46570474456819 235.25 106.36497080294721 C 239.41220924575433 107.79767262211593 240 107.81438186708031 240 106.5 C 240 105.45545497750068 240.87618000301046 105.83500079208459 242.8856200270942 107.75 C 244.472711041996 109.2625 245.710211041996 110.6178070446747 245.6356200270942 110.76179343261046 C 245.5610290121924 110.9057798205462 241.225 109.60050284204812 236 107.86117792483694 C 229.55373078331476 105.71531061926142 224.41060525352148 104.66682230200074 220 104.59938449222648 C 214.48793651004658 104.51510547206199 212.436068373796 105.0251438209602 206.5 107.95511558843022 C 202.65 109.85542916206684 199.1625 111.54292916206684 198.75 111.70511558843022 C 198.3375 111.8673020147936 198.5625 110.87482371337072 199.25 109.49960825193492 C 199.9375 108.12439279049912 201.0625 107.22439279049912 201.75 107.49960825193492 C 202.4375 107.77482371337071 204.8 107.1 207 106 C 210.00682093739303 104.49658953130348 210.85138728701722 103.56548416010945 210.4014665891458 102.25 C 210.072273213176 101.2875 209.58628984082628 98.925 209.32150353947975 97 C 209.05671723813322 95.075 209.31971516020127 91.475 209.9059433662976 89 L 210.97181283192737 84.5 L 207.48590641596368 81.25 C 205.56865788718366 79.4625 203.1 78 202 78 C 200.4816702630404 78 200.003157388302 78.66229661168055 200.01311016495833 80.75 C 200.02032075568545 82.2625 199.35019168658738 85.75 198.52393445585153 88.5 C 197.69767722511568 91.25 197.0195499845931 95.075 197.01698503246803 97 C 197.01442008034297 98.925 197.68937151315728 101.85 198.51687710538874 103.5 C 199.34438269762023 105.15 199.90411036391154 106.62291836439051 199.7607163638139 106.7731519208678 C 199.61732236371626 106.92338547734511 198.825 106.29214192867526 198 105.37038847937927 C 196.97848657988465 104.22907512362963 196.45437956370154 101.27102262538504 196.35698521688073 96.09723655851147 C 196.2408707111346 89.92899752204504 195.86468194538026 88.25687005693538 194.35698521688073 87.20740455219553 C 193.33564334759632 86.49647705590307 191.48114785710422 86.04647705590308 190.23588412689824 86.20740455219553 L 187.97176825379648 86.5 L 187.48588412689824 97.75 L 187 109 L 189.5 112 L 192 115 L 194.52525733603406 113.25 C 195.91414887085278 112.2875 197.2536717317018 111.725 197.5019748045874 112 C 197.75027787747302 112.275 195.8264120762577 114.16131985145438 193.22671746855335 116.19182189212084 C 190.627022860849 118.2223239327873 185.35 123.10032621808227 181.5 127.03182697055409 C 177.65 130.9633277230259 171.8 135.96816065295877 168.5 138.15367792596047 C 165.2 140.33919519896216 161.375 142.38413194075864 160 142.6979817966193 C 158.625 143.01183165247997 156.69783236900426 143.99567887109274 155.7174052644539 144.8843089490921 C 154.73697815990354 145.77293902709144 153.94947815990355 146.8375 153.9674052644539 147.25 C 153.98533236900425 147.6625 155.4625 147.99251488037712 157.25 147.98336640083804 C 159.0375 147.97421792129896 162.28167563297353 147.41171792129896 164.4592791843856 146.73336640083804 C 167.20336829450687 145.87854734117772 172.21699954968489 141.9703964526795 180.7944733957347 134 C 187.60122666056463 127.675 195.7195510275911 120.58117534650304 198.83519421134912 118.23594521445119 C 201.9508373951071 115.89071508239935 207.2 112.61919144793231 210.5 110.96589269341332 C 214.2425341620198 109.090884490743 218.00497722532015 107.97049354856686 220.5 107.98806439587798 C 222.865238410439 108.00472125504015 229.19993956998792 109.8972610280659 236 112.6188063587692 C 242.325 115.15022124748481 248.85 117.44114153930713 250.5 117.70974034059657 C 252.21694373226947 117.98923672142627 257.3491688031916 117.05253155110022 262.5 115.51956709437671 C 267.7244596604198 113.96468970488432 272.54876120543895 113.0896786074759 274 113.43374647841912 C 275.375 113.7597392263528 279.7625 116.49550693831775 283.75 119.51323028278564 C 287.7375 122.53095362725354 291.225 125 291.5 125 C 291.775 125 292 123.875 292 122.5 C 292 120.75450326778726 290.5664437912042 118.77367994944862 287.25 115.9366642170158 C 284.6375 113.70182953637449 281.375 111.60886740621835 280 111.28563726111325 C 278.625 110.96240711600815 273.5625 110.99090821835105 268.75 111.34897304409745 C 263.9375 111.70703786984384 258.0875 112.49702787704804 255.75 113.1045063934401 C 252.3110210200487 113.99824151585477 250.92751457408326 113.92049092055935 248.5 112.69706932111156 L 245.5 111.1851258553429 L 250.94376010188887 111.34256292767145 L 256.38752020377774 111.5 L 258.6473501575631 107.5 C 259.9071577406327 105.27008428274117 261.18261387702404 100.84487357588824 261.5295996613351 97.5 C 261.8719304138277 94.2 261.7193807476943 88.8 261.1906004032608 85.5 C 260.66182005882735 82.2 258.5574755345486 75 256.5142792381969 69.5 C 254.47108294184525 64 252.73201708292527 59.39768305539265 252.64968844059695 59.27262901198367 Z " class="odd" fill="#000000"></path><path d="M 252 69.43480501125373 C 252.275 69.61228265141642 253.49956093984773 73.0745560130418 254.72124653299497 77.12874581486568 C 255.94293212614218 81.18293561668956 257.3727358711347 87.2 257.89858818853384 90.5 C 258.4900306499362 94.21161266775704 258.5028728570671 98.02559155482864 257.93225960494976 100.5 C 257.42492656657936 102.7 256.22012282158687 105.30216763099575 255.25491794941092 106.28259473554611 C 254.2897130772349 107.26302184009647 252.375 108.06518947109222 251 108.06518947109222 C 249.625 108.06518947109222 247.6 107.10201235119165 246.5 105.92479587131317 C 244.90867796231413 104.22176811898804 244.5051426245719 102.4271416588112 244.52516712446538 97.14220113576704 C 244.54339803767894 92.33063068322494 245.50801914148528 87.55268543370865 248.02516712446538 79.80605919638805 C 249.93632520600943 73.92439175440146 251.725 69.25732737109102 252 69.43480501125373 Z " class="even" fill="#ffffff"></path><path d="M 267 69.99551227958531 C 266.175 70.04202191953411 264.2625 70.73705832751554 262.75 71.54003763065519 C 261.2375 72.34301693379484 260.016029687991 73.3375 260.0356215288689 73.75 C 260.0552133697468 74.1625 260.7231839427233 77.2 261.5200005799278 80.5 C 262.3168172171322 83.8 262.9560357583152 89.65 262.94048622700103 93.5 C 262.9249366956869 97.35 262.3177430307769 102.075 261.5911669716456 104 C 260.86459091251425 105.925 259.8718426833403 108.37000656944596 259.3850597957034 109.43334793210214 L 258.5 111.36669586420427 L 262.5 110.56747000080904 C 264.7 110.12789577594165 267.29081359902546 109.25788920649569 268.25736355338995 108.6341220687069 C 269.2239135077544 108.01035493091811 270.7487809024069 105.925 271.6459577637289 104 C 272.84523084617723 101.42681651384629 273.14171396368175 98.77876933142831 272.7655870493137 94 C 272.4604702355036 90.12342851138735 271.18351148398904 85.07837368179631 269.6016998502472 81.5 C 268.1429426450109 78.2 266.94075945949083 75.05 266.93018166020255 74.5 C 266.91950876894225 73.94505562705554 267.5983489964838 74.05631953381942 268.45547464893014 74.75 C 269.7274910879068 75.77945577916184 270.08893004388045 75.69123809082657 270.50403748703144 74.25 C 270.7812581048987 73.2875 270.44375810489873 71.91746359201855 269.75403748703144 71.20547464893012 C 269.06431686916414 70.49348570584169 267.825 69.94900263963652 267 69.99551227958531 Z " class="odd" fill="#000000"></path><path d="M 286.5 70 C 286.775 70 287.9156056083203 72.1375 289.0346791296007 74.75 C 290.1537526508811 77.3625 290.91860452827234 79.95 290.73434996824795 80.5 C 290.55009540822357 81.05 289.40948979990327 78.9125 288.1996708386473 75.75 C 286.9898518773913 72.5875 286.225 70 286.5 70 Z " class="even" fill="#ffffff"></path><path d="M 219.75 71.99226797178994 C 218.76051019988677 71.99663983638882 217.99144667045874 72.76051019988677 217.98031804609667 73.75 C 217.96949297144982 74.7125 216.61949297144983 77.8625 214.98031804609667 80.75 C 213.3411431207435 83.6375 211.51368211162665 87.9125 210.91929358139254 90.25 L 209.8385871627851 94.5 L 210.91929358139254 98.75 L 212 103 L 219 103 L 226 103 L 225 100.5 C 224.45 99.125 224 96.425 224 94.5 C 224 92.575 224.95437542347 88.8625 226.12083427437773 86.25 L 228.24166854875548 81.5 L 226.87083427437773 78.09714859218282 C 226.11687542347 76.22558031788337 224.6 74.08460090518884 223.5 73.33941656397275 C 222.4 72.59423222275667 220.7125 71.9880153562744 219.75 71.99226797178994 Z " class="odd" fill="#000000"></path><path d="M 277.75 79.96740526445389 C 277.0625 79.94947815990352 275.712683699581 80.73697815990353 274.75040822129114 81.71740526445389 C 273.17781865120065 83.31965895753352 273.1201549261455 84.2081740297402 274.1804267500222 90.5 C 275.172826448643 96.38906170667606 275.11615144398854 98.21417461713682 273.8233186775353 102 C 272.9781235685756 104.475 271.99963527690204 107.175 271.6489002515941 108 C 271.12978557040503 109.22106314191178 271.6855127420011 109.40702104730393 274.6373570769397 109 C 277.5190389474837 108.60265344650364 278.64782805702885 107.78142587447452 280.1354146093048 105 C 281.16495997285773 103.075 281.9859175636643 100.15 281.9597648110972 98.5 C 281.9336120585301 96.85 281.26374147488565 93.7 280.47116351410943 91.5 C 279.6785855533332 89.3 279.02333732415923 85.8125 279.01505633816726 83.75 C 279.0057911191456 81.44236244927434 278.51921251690857 79.9874630873078 277.75 79.96740526445389 Z " class="odd" fill="#000000"></path><path d="M 287 86.93880798226346 C 285.625 86.92348570584168 283.9558327005638 87.49348570584169 283.2907393345862 88.20547464893012 C 282.4637648523123 89.09075890782492 282.26972125346975 91.55485902376464 282.6769340185574 96 C 283.13010809500054 100.94685537701986 282.88142829477954 103.27657231149007 281.6361946839712 105.75 C 280.736287607787 107.5375 280.1125 109.16777058419261 280.25 109.37282352042801 C 280.3875 109.57787645666342 281.9625 110.47787645666342 283.75 111.37282352042801 L 287 113 L 288.25 111.34612503409937 C 288.9375 110.43649380285403 289.4142896377198 107.62399380285403 289.3095325282661 105.09612503409937 C 289.20477541881246 102.56825626534471 288.64227541881246 99.2625 288.0595325282661 97.75 C 287.4767896377198 96.2375 286.9925 93.7625 286.98333333333335 92.25 C 286.97416666666663 90.7375 287.53666666666663 88.93 288.23333333333335 88.23333333333333 C 289.25555555555553 87.21111111111111 289.01754385964915 86.9612904293257 287 86.93880798226346 Z " class="odd" fill="#000000"></path><path d="M 292 95.97222222222223 C 291.175 95.95694444444445 290.275 96.15678280356822 290 96.41630746471952 C 289.725 96.67583212587081 289.9155159033881 99.5008321258708 290.4233686741958 102.6940852424973 C 291.1995351738699 107.57442898890197 291.06410826839686 108.97825590785774 289.5738638176037 111.5 L 287.8009902868159 114.5 L 290.4313521463954 117 C 292.6816543083338 119.13877622364296 293.20814147930724 119.28326573418578 294.0751264867995 118 C 294.6652189820752 117.12657603921218 294.81923923852304 114.20255452288869 294.44384531773704 111 C 294.0892638102992 107.975 293.7318425425838 103.3625 293.64957583392504 100.75 C 293.54014725745 97.2749350472153 293.09738893245833 95.99254423948997 292 95.97222222222223 Z " class="odd" fill="#000000"></path><path d="M 256.23634787902637 131.5 C 255.52124124994356 125.30958436049198 255.32886417088616 124.84696472592513 254.57297637740376 127.5 C 254.10286771679392 129.15 253.64786365578124 133.65 253.56185624182 137.5 C 253.42556366829504 143.60094390592621 253.02623934008184 144.98758286730174 250.45273956276344 148.29629268252546 C 248.82873280324355 150.38425365791446 247.1625 152.07175365791446 246.75 152.04629268252546 C 246.3375 152.02083170713647 244.85597729566433 150.3125 243.4577273236985 148.25 L 240.91545464739698 144.5 L 241.64118486987365 135 C 242.08666359841652 129.16856596282486 242.00644661007243 125.74430073742502 241.4334575461752 126.13263330387292 C 240.92005589577883 126.48058162100303 240.15690812265015 128.50558162100302 239.73757360588922 130.63263330387292 C 239.31823908912833 132.75968498674283 238.01614770499378 136.3 236.84403719670138 138.5 L 234.7129271816243 142.5 L 237.2253993105536 147 C 238.6072589814647 149.475 241.37185036559922 153.1875 243.36893571974144 155.25 L 247 159 L 249.38794476502363 157.25 C 250.70131438578665 156.2875 253.37662519652147 153.25 255.3330798999899 150.5 C 258.5285288796786 146.00846504211654 258.79644352543846 145.14407447051843 257.9676233156454 142 C 257.4601674907875 140.075 256.68109354430896 135.35 256.23634787902637 131.5 Z " class="odd" fill="#000000"></path><path d="M 249.101028219944 129.5 C 248.5066023654439 128.8613552200688 247.729878833372 129.94542088027515 246.95155454712963 132.5 C 246.28126274974045 134.7 245.68045269588617 138.525 245.6164210941201 141 C 245.51624357904328 144.8721403647067 245.77904872679701 145.5 247.5 145.5 C 249.29858713182804 145.5 249.5267773138201 144.74470174435518 249.76589476693448 138 C 249.91213688874845 133.875 249.61294694260272 130.05 249.101028219944 129.5 Z " class="odd" fill="#000000"></path><path d="M 151 149 C 150.45 149 149.76286137560447 150.0125 149.47302527912106 151.25 C 149.00002855561507 153.26953259942601 149.1070192411683 153.346355066284 150.51755063019095 152 C 151.3818756697628 151.175 152.0690142941583 150.1625 152.04452535106986 149.75 C 152.02003640798145 149.3375 151.55 149 151 149 Z " class="odd" fill="#000000"></path><path d="M 210 149.12355550775206 C 206.425 149.18320146401118 202.6 149.4389571009134 201.5 149.6919013675348 C 200.4 149.94484563415617 197.8125 150.56764502644234 195.75 151.07590001705955 C 193.6875 151.5841550076768 191.9932186643793 152.5625 191.98493036528734 153.25 C 191.97389103260554 154.16569345344996 193.11053329087562 154.311411924881 196.23493036528734 153.7948534920077 C 198.7081664843534 153.38595188847796 204.49112320701641 153.69333304789183 210 154.5265074307531 C 215.225 155.31674767645885 222.875 157.08196269923366 227 158.44920748136383 C 232.94223629119452 160.41878119368383 234.7868593911378 161.51302630030392 235.8811115391713 163.71755354261842 C 236.6407228857155 165.24789909417828 237.42783569786457 166.05 237.6302511217248 165.5 C 237.83266654558503 164.95 237.14447132258016 162.25 236.10092840393622 159.5 C 235.05738548529231 156.75 233.14527267314324 153.72781008531953 231.85178882138274 152.78402241182118 C 230.5583049696222 151.84023473832283 226.575 150.6061341090974 223 150.04157656909803 C 219.425 149.47701902909864 213.575 149.06390955149294 210 149.12355550775206 Z " class="odd" fill="#000000"></path><path d="M 154.25 158.1023996022668 C 152.77923380951356 157.34802227795066 152.46559617097236 157.7070371758967 152.28438606376773 160.3523996022668 C 152.16579839883997 162.08357982102007 151.8042882976194 165.975 151.48103028327756 169 C 150.96785262399854 173.8022395437892 151.2172212925221 174.97574576559828 153.44664421950984 178.25 C 154.85098989877943 180.3125 156 183.35 156 185 C 156 186.65 156.45 188 157 188 C 157.55 188 158 186.425 158 184.5 C 158 182.5440430876774 157.10073004623501 179.78682328825346 155.96155634302153 178.25 C 154.84041233168338 176.7375 153.65716779500437 173.7 153.33212403929036 171.5 C 152.98785482878966 169.16987597888834 153.24677943492463 166.4563275131948 153.95234879707704 165 L 155.16356220161646 162.5 L 156.58178110080823 164.75 C 157.6296020305365 166.41236474019075 157.7388287734181 167.6529280664547 157 169.5 C 156.45 170.875 156 173.125 156 174.5 C 156 175.875 156.45 177 157 177 C 157.55 177 158.00689074853267 175.7625 158.01531277451704 174.25 C 158.02373480050144 172.7375 158.36123480050145 170.93010238901152 158.76531277451704 170.23356086447 C 159.2832424803239 169.34076400325316 159.86879217467953 169.70955617793268 160.75 171.48356086447 C 161.77970812247318 173.5565191185217 161.72641555291685 174.66087563258048 160.44760250494346 177.75 C 159.59378388266236 179.8125 159.03128388266236 182.815296504732 159.19760250494346 184.42288112162666 C 159.36392112722456 186.03046573852131 160.0625 187.49296573852132 160.75 187.67288112162666 C 161.65242352685638 187.90904093916504 161.82236079215866 187.09630116982663 161.36115063314452 184.75 C 160.9430456125162 182.62298636025827 161.29596600362964 180.29063007356802 162.3825265925595 178 C 163.29565052200826 176.075 164.02652382813622 174.05 164.00668949506607 173.5 C 163.98685516199592 172.95 162.17723598025918 169.4625 159.98531353565107 165.75 C 157.793391091043 162.0375 155.2125 158.59607982102006 154.25 158.1023996022668 Z " class="odd" fill="#000000"></path><path d="M 192.5 165.96306421658764 L 190.5 165.9485716078135 L 192.6187611413393 168.22428580390675 C 193.78407976907587 169.47592861175804 195.0636233702095 171.85 195.46219136608067 173.5 C 195.8607593619518 175.15 197.04481684834914 177.7375 198.09343022474138 179.25 C 199.41538889113548 181.1567680500131 201.91643624997022 182.6059006463544 206.25 183.9760005269019 C 209.6875 185.06280081669797 216.18818737427753 186.30030081669796 220.69597194283898 186.7260005269019 L 228.89194388567796 187.5 L 229.61351000127055 185.5 C 230.01280989955822 184.3932409943897 229.7019745644138 181.7203962556703 228.91753805843157 179.5154006466181 C 227.88691844039917 176.6184016989226 226.40819597231197 174.9235672968526 223.5 173.30610169153397 C 221.3 172.0825169105977 213.875 169.93303690532593 207 168.52947945759672 C 200.125 167.1259220098675 193.6 165.97103515141342 192.5 165.96306421658764 Z " class="odd" fill="#000000"></path><path d="M 295.25 166.95547464893014 C 295.6625 166.97996359201855 296.25748667055365 167.5625 296.5721926012303 168.25 C 296.886898531907 168.9375 296.13834080450385 171.975 294.9087309847789 175 C 293.67912116505397 178.025 292.2476983186478 180.95 291.72779132609855 181.5 C 291.1301119727391 182.13227394333714 290.9144265258754 180.26160516170657 291.14125294254995 176.41287400570127 C 291.3485471959604 172.89555947391833 292.1332573364481 169.60493256545448 293 168.6183486546314 C 293.825 167.67927900840726 294.8375 166.9309857058417 295.25 166.95547464893014 Z " class="even" fill="#ffffff"></path><path d="M 199.75 170.01365468329243 C 201.2625 170.0211647591033 203.5125 170.2461647591033 204.75 170.51365468329243 C 206.75165511312636 170.94631938992922 207 171.60706527902445 207 176.5 C 207 179.525 206.8875 182.00745168896094 206.75 182.01655930880207 C 206.6125 182.0256669286432 205.15 181.5778352243476 203.5 181.02137774370073 C 201.85 180.4649202630538 199.7125 178.6574685740929 198.75 177.00481843489865 C 197.7875 175.3521682957044 197 173.1 197 172 C 197 170.48153825859578 197.66211510556917 170.00328762620717 199.75 170.01365468329243 Z " class="even" fill="#ffffff"></path><path d="M 212.5 172.17442115502567 C 213.7194623030009 172.37293671907605 214.5 173.2751929483248 214.5 174.48630495696784 C 214.5 175.69366683121237 213.71568631242567 176.6046998087932 212.5 176.8094391621056 C 211.4 176.99469524859907 210.20125033180366 176.55085801796352 209.83611184845256 175.82313420513776 L 209.17222369690515 174.5 L 209.83611184845256 173.17442115502567 C 210.20125033180366 172.44535279028977 211.4 171.9953527902898 212.5 172.17442115502567 Z " class="even" fill="#ffffff"></path><path d="M 223.25 175.65210439288825 C 223.9375 176.01076180897678 225.30216763099574 177.02326180897677 226.28259473554613 177.90210439288825 C 227.26302184009648 178.78094697679973 228.05052184009648 180.7375 228.03259473554613 182.25 L 228 185 L 224 185 C 220.6086159371536 185 220.09926269783313 184.7337305274953 220.65238316497184 183.25 C 221.01119390570634 182.2875 221.46119390570635 180.0375 221.65238316497184 178.25 C 221.88918871361477 176.03601622379088 222.3984677783811 175.2078740709654 223.25 175.65210439288825 Z " class="even" fill="#ffffff"></path><path d="M 279 176 C 281 176 282 176.5 282 177.5 C 282 178.325 281.55 180.125 281 181.5 C 280.45 182.875 279.1 184.45 278 185 L 276 186 L 276 181 L 276 176 L 279 176 Z " class="even" fill="#ffffff"></path><path d="M 268.25 177.32832794038913 C 268.9375 177.50890830760315 269.6125 178.63390830760315 269.75 179.82832794038913 C 269.88802314279405 181.02729195153148 269.28911443080204 182.33593057161775 268.41287390328637 182.75 C 267.41359167166945 183.22221306187615 266.513064122516 182.94442612375227 265.9815296996078 182 C 265.50932058701494 181.1609826145097 265.5477131438135 179.72885361640536 266.0686557963214 178.75 C 266.58089510834463 177.7875 267.5625 177.1477475731751 268.25 177.32832794038913 Z " class="even" fill="#ffffff"></path><path d="M 262.25 179.00311633937537 C 262.9829711010455 179.0049436887379 263.5195380592008 180.34921882601955 263.54723638088774 182.25311633937537 C 263.573216390376 184.0389023527189 263.798216390376 186.175 264.04723638088774 187 C 264.38948333960633 188.13385973697376 263.64567271960544 188.5 261 188.5 L 257.5 188.5 L 257.83160127981057 186 C 258.01398198370634 184.625 258.80148198370637 182.4875 259.58160127981057 181.25 C 260.3617205759147 180.0125 261.5625 179.0014023527189 262.25 179.00311633937537 Z " class="even" fill="#ffffff"></path><path d="M 223 189.21219056046783 C 221.625 189.2515815798537 218.7 189.60609582764317 216.5 190 L 212.5 190.71618940428513 L 217 190.78780943953217 C 219.475 190.82720045891807 222.4 190.47268621112858 223.5 190 L 225.5 189.14057052522077 L 223 189.21219056046783 Z " class="odd" fill="#000000"></path><path d="M 263.5 193.19494871889628 C 261.5979696856924 193.21844131794055 261.23197979046165 193.3955366291836 262.5 193.6788290487927 C 263.6 193.92458354010594 264.95 193.90790924818157 265.5 193.64177506673855 C 266.05 193.3756408852955 265.15 193.17456902876648 263.5 193.19494871889628 Z " class="odd" fill="#000000"></path><path d="M 155.23978433131714 199.25 C 154.0079029490927 199.1125 152.775 199.45 152.5 200 C 152.225 200.55 152.675 200.775 153.5 200.5 C 154.325 200.225 155.0203874151971 200.3375 155.04530536710462 200.75 C 155.07022331901217 201.1625 153.04522331901217 203.1875 150.54530536710462 205.25 C 148.0453874151971 207.3125 145.1 210.8 144 213 C 142.9 215.2 142 218.575 142 220.5 C 142 222.425 142.3375 224.20660545497424 142.75 224.45912323327607 C 143.1625 224.7116410115779 145.075 224.49806862260556 147 223.98451792444862 C 149.8319805049079 223.2290033449877 150.82690959105037 223.37995223024112 152.2127996668997 224.77539469117255 L 153.92559933379943 226.5 L 154.9203419283753 222.5 C 155.46745035539203 220.3 156.04669050528716 216.59398306345233 156.2075422614756 214.26440680767183 C 156.4468034806976 210.79924566528553 156.09073687352486 209.7533510087379 154.25 208.51440680767183 C 153.0125 207.68148306345233 151.99593355505445 206.6625 151.99096345567654 206.25 C 151.98599335629862 205.8375 153.33599335629862 204.9375 154.99096345567654 204.25 C 156.94039325343974 203.44017691832258 157.90836725508794 202.38375231434838 157.73978433131714 201.25 C 157.5953552329185 200.27868676787614 156.48294556452402 199.38875903316054 155.23978433131714 199.25 Z " class="odd" fill="#000000"></path><path d="M 223.5 210.97921010522117 C 224.6 210.94166666117266 226.175 211.62602211382313 227 212.5 C 227.825 213.37397788617687 230.075 214.08529235458863 232 214.08069881869278 C 234.70297456861698 214.074248839105 236.4678165952508 214.97499566435874 239.75 218.03617346762292 C 243.27291682399022 221.32187492133824 244.3421567887105 221.82892160564475 246 221 C 247.1 220.45 248.675 218.875 249.5 217.5 C 250.56666666666666 215.72222222222223 251.86666666666667 215 254 215 C 256.23843324566104 215 258.2188020726344 216.20581402770338 261.8011631246652 219.75 C 265.1208483556628 223.03430933042677 267.1265303245525 226.11997389794936 268.3011631246652 229.75 C 269.23552340609933 232.6375 269.99465900607606 236.9125 269.98813112461346 239.25 C 269.98160324315086 241.5875 269.37523479404655 245.75 268.64064568215946 248.5 C 267.90605657027237 251.25 266.3363975641963 255.4125 265.152514557546 257.75 C 263.9686315508957 260.0875 261.26232963847 263.9125 259.13851030771116 266.25 C 256.88258811044125 268.7328939353492 252.82863890330114 271.5997331808708 249.3885103077112 273.14492670372033 C 246.14982963847004 274.59963639076653 241.025 276.07835395741927 238 276.43096574072644 C 234.975 276.7835775240336 229.35 276.614729340413 225.5 276.0557475549029 C 221.65 275.49676576939277 216.025 273.8080893400089 213 272.30313326738315 C 209.975 270.7981771947574 205.722495126361 267.75180836170387 203.54998916969112 265.53342474948636 C 201.37748321302124 263.31504113726885 198.49953664365552 259.025 197.15455234887844 256 C 195.00894348658528 251.17431777185735 194.76653881557442 249.4578725344023 195.1774048581822 242 C 195.53842917904933 235.44683403438003 196.2375005766061 232.35480350918823 198.2295946053811 228.5 C 199.65074579144633 225.75 202.09296703589862 222.35249501385402 203.65675292638622 220.9499889196756 C 205.22053881687378 219.54748282549716 207.175 217.87293616828768 208 217.22877412587673 C 208.825 216.58461208346577 212.2 214.93029802494274 215.5 213.5525206624922 C 218.8 212.17474330004165 222.4 211.0167535492697 223.5 210.97921010522117 Z " class="even" fill="#ffffff"></path><path d="M 292.75 212.96017005699795 C 293.1625 212.9382635883468 294.5610049707569 215.30076358834683 295.85778882390423 218.21017005699795 C 297.25932728727213 221.35459930130827 298.38332720770717 226.13621036815076 298.6291911258961 230 C 298.8566785388442 233.575 299.3088972564656 238.3 299.6341216094992 240.5 C 300.11926148150724 243.7817582953501 299.8011877292564 244.99398328670378 297.8627193075074 247.2510699170251 C 296.56322368837834 248.7641583713889 294.15 250.25456704413628 292.5 250.56308918979704 L 289.5 251.1240385455439 L 290.23799474246056 244.81201927277195 C 290.6438918508139 241.34040867274737 291.2063918508139 237.4875 291.48799474246056 236.25 C 291.8094577927664 234.8373350858465 292.74429785408574 234 294 234 C 295.1827171982862 234 296.0594031193812 233.28487754850042 296.1453673544988 232.25 C 296.2253193994731 231.2875 296.17594504674565 228.925 296.03564657066 227 C 295.89534809457433 225.075 294.9299327850499 221.3625 293.8902792161612 218.75 C 292.8506256472725 216.1375 292 213.775 292 213.5 C 292 213.225 292.3375 212.9820765256491 292.75 212.96017005699795 Z " class="even" fill="#ffffff"></path><path d="M 204.25 231.63494541958443 L 203.5 231.26989083916885 L 202.25 231.63494541958443 C 201.5625 231.835725438813 201 232.45 201 233 C 201 233.55 201.45 234 202 234 C 202.55 234 205.3625 236.52736496376178 208.25 239.6163665861373 C 211.1375 242.7053682085128 215.075 245.8966670258242 217 246.70814173571816 C 219.64988753716727 247.82518938271787 222.6860034758556 248.03280247620313 229.5 247.5629060862808 C 234.79517432235534 247.19774838635126 241.7931783801286 247.4345231176644 246.5 248.13809443985883 C 253.14043202152507 249.13070004819596 255.08792338662414 249.09311973062253 257.95947180829387 247.9169635031589 C 259.86218130285556 247.1376335764215 263.12468130285555 244.8125 265.20947180829387 242.75 C 267.29426231373225 240.6875 268.775 238.55 268.5 238 C 268.225 237.45 267.325 237 266.5 237 C 265.6111111111111 237 265.2037037037037 237.61111111111111 265.5 238.5 C 265.7962962962963 239.38888888888889 264.5740740740741 241.22222222222223 262.5 243 C 260.575 244.65 257.7625 246.29641758635495 256.25 246.65870574745546 C 254.7375 247.02099390855597 249.675 246.83355901680088 245 246.2421837657775 C 240.325 245.65080851475415 232.9 245.41383856876644 228.5 245.71558388580485 C 222.10492749264438 246.15414824517205 219.7978442219681 245.9149701104329 217 244.52336486863254 C 215.075 243.56589909214938 211.58119288506535 240.9189514517821 209.23598418903413 238.64125900114976 C 206.8907754930029 236.3635665505174 204.9782754930029 233.9375 204.98598418903413 233.25 C 204.99369288506534 232.5625 204.6625 231.835725438813 204.25 231.63494541958443 Z " class="odd" fill="#000000"></path><path d="M 225 256.528083891734 C 222.77068180057628 255.9546572791083 222.82481816069154 256.0723307324308 225.5 257.6149084683402 C 227.2640441628269 258.63210109829663 231.69576467425688 259.5827504683007 236.25698753500683 259.9223922992634 C 241.14684374186092 260.28650511855403 244.01379631341982 260.13038082564736 244.01349144631058 259.5 C 244.01322545327392 258.95 240.29758106252086 258.20100547519576 235.75650391130378 257.8355677226572 C 231.2154267600867 257.47012997011865 226.375 256.88176224620327 225 256.528083891734 Z " class="odd" fill="#000000"></path><path d="M 281.25 333.06965172466073 C 280.2875 333.1079601732241 277.25 333.8038076788887 274.5 334.6159795150264 C 271.75 335.42815135116416 267.025 337.0549414674767 264 338.23106866238754 C 260.975 339.4071958572984 256.925 341.33339102086137 255 342.5115023591941 C 253.075 343.68961369752685 250.47193656917295 345.968980305117 249.2154145981621 347.57676148717223 C 247.95889262715124 349.18454266922754 246.94639262715125 351.7375 246.9654145981621 353.25 C 246.98443656917294 354.7625 247.45 356 248 356 C 248.55 356 248.98443656917294 355.2125 248.9654145981621 354.25 C 248.94639262715125 353.2875 249.84639262715126 351.2625 250.9654145981621 349.75 C 252.11904763224788 348.1907187622254 256.57215628667626 345.3083230618796 261.25 343.09302235975827 C 265.7875 340.94418465762527 272.5517380836818 338.13168465762527 276.28164018595965 336.84302235975827 C 280.0115422882375 335.5543600618912 283.04904228823744 334.1625 283.03164018595965 333.75 C 283.01423808368185 333.3375 282.2125 333.03134327609735 281.25 333.06965172466073 Z " class="odd" fill="#000000"></path><path d="M 173.25 334.03143107621713 C 172.5625 334.0141439842977 171.99421932133382 334.5625 171.98715404740847 335.25 C 171.97941249619612 336.0033064555943 174.06552538269986 336.7862762126487 177.23715404740847 337.2204548354641 C 180.1317193213338 337.61670499496944 187.675 339.5056147806711 194 341.4180321370235 C 203.09586203742964 344.16824311431463 206.07490255626684 345.5332802802606 208.25 347.9475773015593 C 209.7625 349.6264097857017 211 351.675 211 352.5 C 211 353.325 211.45 354 212 354 C 212.55 354 212.9983178728031 353.2125 212.99626193956246 352.25 C 212.9942060063218 351.2875 212.0942060063218 349.0375 210.99626193956246 347.25 C 209.6931137534957 345.1284188984512 206.82996365682467 342.9440373286857 202.75 340.95868379510307 C 198.7408633710749 339.00779544355174 192.55608046690818 337.22637398627717 185.5 335.9901148713202 C 179.45 334.9301258759329 173.9375 334.04871816813653 173.25 334.03143107621713 Z " class="odd" fill="#000000"></path><path d="M 236.75 346.97428580390675 C 235.7875 346.988428611758 234.55 347.9 234 349 C 233.45 350.1 233.1125 351.2231897195846 233.25 351.4959771546324 C 233.3875 351.7687645896802 234.625 350.85719320143824 236 349.47026295853914 C 238.08928481194738 347.3628503827431 238.21249936836318 346.95279609216715 236.75 346.97428580390675 Z " class="odd" fill="#000000"></path></g></svg>